<?xml version="1.0" encoding="UTF-8"?>
<svg id="Layer_1" xmlns="http://www.w3.org/2000/svg" version="1.1" viewBox="0 0 400 400">
  <!-- Generator: Adobe Illustrator 29.1.0, SVG Export Plug-In . SVG Version: 2.1.0 Build 142)  -->
  <defs>
    <style>
      .st0, .st1 {
        fill: none;
        stroke: #0f172a;
        stroke-miterlimit: 10;
      }

      .st2 {
        fill: #0f172a;
      }

      .st1 {
        stroke-width: 3px;
      }
    </style>
  </defs>
  <line class="st0" x1="182.7" y1="35.1" x2="180.9" y2="18.6"/>
  <line class="st0" x1="165.5" y1="37.8" x2="162.1" y2="21.6"/>
  <line class="st0" x1="148.7" y1="42.3" x2="143.6" y2="26.5"/>
  <line class="st0" x1="132.5" y1="48.5" x2="125.8" y2="33.3"/>
  <line class="st0" x1="102.5" y1="65.8" x2="92.8" y2="52.4"/>
  <line class="st0" x1="89" y1="76.7" x2="77.9" y2="64.4"/>
  <line class="st0" x1="76.7" y1="89" x2="64.4" y2="77.9"/>
  <line class="st0" x1="65.8" y1="102.5" x2="52.4" y2="92.8"/>
  <line class="st0" x1="48.5" y1="132.5" x2="33.3" y2="125.8"/>
  <line class="st0" x1="42.3" y1="148.7" x2="26.5" y2="143.6"/>
  <line class="st0" x1="37.8" y1="165.5" x2="21.6" y2="162.1"/>
  <line class="st0" x1="35.1" y1="182.7" x2="18.6" y2="180.9"/>
  <line class="st0" x1="35.1" y1="217.3" x2="18.6" y2="219.1"/>
  <line class="st0" x1="37.8" y1="234.5" x2="21.6" y2="237.9"/>
  <line class="st0" x1="42.3" y1="251.3" x2="26.5" y2="256.4"/>
  <line class="st0" x1="48.5" y1="267.5" x2="33.3" y2="274.2"/>
  <line class="st0" x1="65.8" y1="297.5" x2="52.4" y2="307.2"/>
  <line class="st0" x1="76.7" y1="311" x2="64.4" y2="322.1"/>
  <line class="st0" x1="89" y1="323.3" x2="77.9" y2="335.6"/>
  <line class="st0" x1="102.5" y1="334.2" x2="92.8" y2="347.6"/>
  <line class="st0" x1="132.5" y1="351.5" x2="125.8" y2="366.7"/>
  <line class="st0" x1="148.7" y1="357.7" x2="143.6" y2="373.5"/>
  <line class="st0" x1="165.5" y1="362.2" x2="162.1" y2="378.4"/>
  <line class="st0" x1="182.7" y1="364.9" x2="180.9" y2="381.4"/>
  <line class="st0" x1="217.3" y1="364.9" x2="219.1" y2="381.4"/>
  <line class="st0" x1="234.5" y1="362.2" x2="237.9" y2="378.4"/>
  <line class="st0" x1="251.3" y1="357.7" x2="256.4" y2="373.5"/>
  <line class="st0" x1="267.5" y1="351.5" x2="274.2" y2="366.7"/>
  <line class="st0" x1="297.5" y1="334.2" x2="307.2" y2="347.6"/>
  <line class="st0" x1="311" y1="323.3" x2="322.1" y2="335.6"/>
  <line class="st0" x1="323.3" y1="311" x2="335.6" y2="322.1"/>
  <line class="st0" x1="334.2" y1="297.5" x2="347.6" y2="307.2"/>
  <line class="st0" x1="351.5" y1="267.5" x2="366.7" y2="274.2"/>
  <line class="st0" x1="357.7" y1="251.3" x2="373.5" y2="256.4"/>
  <line class="st0" x1="362.2" y1="234.5" x2="378.4" y2="237.9"/>
  <line class="st0" x1="364.9" y1="217.3" x2="381.4" y2="219.1"/>
  <line class="st0" x1="364.9" y1="182.7" x2="381.4" y2="180.9"/>
  <line class="st0" x1="362.2" y1="165.5" x2="378.4" y2="162.1"/>
  <line class="st0" x1="357.7" y1="148.7" x2="373.5" y2="143.6"/>
  <line class="st0" x1="351.5" y1="132.5" x2="366.7" y2="125.8"/>
  <line class="st0" x1="334.2" y1="102.5" x2="347.6" y2="92.8"/>
  <line class="st0" x1="323.3" y1="89" x2="335.6" y2="77.9"/>
  <line class="st0" x1="311" y1="76.7" x2="322.1" y2="64.4"/>
  <line class="st0" x1="297.5" y1="65.8" x2="307.2" y2="52.4"/>
  <line class="st0" x1="267.5" y1="48.5" x2="274.2" y2="33.3"/>
  <line class="st0" x1="251.3" y1="42.3" x2="256.4" y2="26.5"/>
  <line class="st0" x1="234.5" y1="37.8" x2="237.9" y2="21.6"/>
  <line class="st0" x1="217.3" y1="35.1" x2="219.1" y2="18.6"/>
  <line class="st1" x1="282.9" y1="56.4" x2="299.5" y2="27.7"/>
  <line class="st1" x1="343.6" y1="117.1" x2="372.3" y2="100.5"/>
  <line class="st1" x1="365.9" y1="200" x2="399" y2="200"/>
  <line class="st1" x1="343.6" y1="282.9" x2="372.3" y2="299.5"/>
  <line class="st1" x1="282.9" y1="343.6" x2="299.5" y2="372.3"/>
  <line class="st1" x1="200" y1="365.9" x2="200" y2="399"/>
  <line class="st1" x1="117.1" y1="343.6" x2="100.5" y2="372.3"/>
  <line class="st1" x1="56.4" y1="282.9" x2="27.7" y2="299.5"/>
  <line class="st1" x1="34.1" y1="200" x2="1" y2="200"/>
  <line class="st1" x1="56.4" y1="117.1" x2="27.7" y2="100.5"/>
  <line class="st1" x1="117.1" y1="56.4" x2="100.5" y2="27.7"/>
  <path class="st2" d="M200,3c26.6,0,52.4,5.2,76.7,15.5,23.5,9.9,44.5,24.1,62.6,42.2s32.3,39.2,42.2,62.6c10.3,24.3,15.5,50.1,15.5,76.7s-5.2,52.4-15.5,76.7c-9.9,23.5-24.1,44.5-42.2,62.6s-39.2,32.3-62.6,42.2c-24.3,10.3-50.1,15.5-76.7,15.5s-52.4-5.2-76.7-15.5c-23.5-9.9-44.5-24.1-62.6-42.2s-32.3-39.2-42.2-62.6c-10.3-24.3-15.5-50.1-15.5-76.7s5.2-52.4,15.5-76.7c9.9-23.5,24.1-44.5,42.2-62.6s39.2-32.3,62.6-42.2c24.3-10.3,50.1-15.5,76.7-15.5M200,0C89.5,0,0,89.5,0,200s89.5,200,200,200,200-89.5,200-200S310.5,0,200,0h0Z"/>
  <path class="st2" d="M209.3,33.2l-3.9,10.9c-.5,1.3-1.9,2-3.3,1.5-1.3-.5-2-1.9-1.5-3.3l8-22.1-5.5-2c-1.2,3.3-4.2,5.4-7.4,5.6l.6-1.8c.6-1.7-.3-3.6-2-4.3-1.7-.6-3.6.3-4.3,2-.6,1.7.3,3.6,2,4.3.8.3,1.7.5,2.5.5l-3.1,8.7h.8l3.1-8.7c2.1,0,4.2-.9,5.8-2.2.1.5,0,.9,0,1.4l-6.1,16.9c-.9,3,.7,6.2,3.6,7.2,3.1,1.1,6.4-.5,7.5-3.5l4-11.1h-.8ZM194.8,23.8c-.8,0-1.7-.2-2.5-.5h0c-1.3-.5-2-1.9-1.5-3.3.5-1.3,1.9-2,3.3-1.5,1.3.5,2,1.9,1.5,3.3l-.7,2h-.1Z"/>
  <g>
    <path class="st2" d="M158.9,388.7l1.3-6.2,1,.2-.5,2.5,3.1.6.5-2.5,1,.2-1.3,6.2-1-.2.5-2.7-3.1-.6-.5,2.7-1-.2Z"/>
    <path class="st2" d="M170,390.8c-.6,0-1.1-.3-1.6-.7s-.7-.8-.9-1.3-.2-1.1-.1-1.7c0-.6.3-1.2.7-1.6.3-.4.8-.8,1.3-1s1.1-.3,1.7-.2c.6,0,1.1.3,1.6.7.4.3.7.8.9,1.3s.2,1.1.1,1.7c0,.6-.3,1.2-.7,1.6-.3.4-.8.8-1.3,1s-1.1.3-1.7.2ZM170.1,389.9c.4,0,.8,0,1.1-.1s.6-.4.9-.7c.2-.3.4-.7.4-1.1v-1.2c-.1-.4-.3-.7-.6-.9-.3-.2-.6-.4-1-.5-.4,0-.8,0-1.1.1s-.6.4-.9.7c-.2.3-.4.7-.5,1.1v1.2c.1.4.3.7.6.9.3.2.6.4,1,.5h.1Z"/>
    <path class="st2" d="M175.9,391.6l.7-6.3h1.1c0,.1,1.7,3.2,1.7,3.2l2.3-2.7h1.1c0,.1-.7,6.4-.7,6.4h-1c0-.1.5-4.7.5-4.7l-2.4,2.8-1.7-3.2-.5,4.6h-1.1Z"/>
    <path class="st2" d="M185.3,392.5l.4-6.3,3.9.3v1l-2.9-.2v1.7c-.1,0,2.4.2,2.4.2v.9l-2.6-.2v1.8c-.1,0,2.7.2,2.7.2v1l-4-.3h.1Z"/>
    <path class="st2" d="M212.2,392.7l-.5-6.3h1.1l2.2,2.7,1.7-3.1h1.1l.5,6.2h-1l-.4-4.6-1.8,3.2-2.3-2.8.4,4.6h-1Z"/>
    <path class="st2" d="M220.9,391.9l1.7-6.6h1.1c0-.1,3.3,5.8,3.3,5.8h-1.1c0,.1-.8-1.3-.8-1.3l-2.7.3-.4,1.6h-1.1v.2ZM222.6,389.2l2-.2-1.3-2.4-.7,2.6Z"/>
    <path class="st2" d="M229.5,390.8l-1-6.2,2-.3c.6-.1,1.2,0,1.7.1.5.2.9.5,1.3.9.3.4.6.9.7,1.5.1.6,0,1.2-.1,1.7-.2.5-.5.9-.9,1.3-.4.3-.9.6-1.6.7l-2,.3h0ZM230.3,389.7l.9-.2c.3,0,.6-.1.8-.3.2-.2.4-.3.6-.6.2-.2.3-.5.3-.8v-.9c0-.3-.1-.6-.3-.8-.2-.2-.3-.4-.6-.6s-.5-.3-.7-.3h-.8l-.9.2.7,4.3h0Z"/>
    <path class="st2" d="M237.4,389.4l-1.3-6.2,3.8-.8.2.9-2.8.6.3,1.6,2.5-.5.2.9-2.5.5.4,1.7,2.8-.6.2.9-3.8.8v.2h0Z"/>
  </g>
</svg>