<?xml version="1.0" encoding="UTF-8"?>
<svg id="Layer_1" data-name="Layer 1" xmlns="http://www.w3.org/2000/svg" width="400" height="400" viewBox="0 0 400 400">
  <line x1="285.008" y1="52.763" x2="299.5" y2="27.661" fill="none" stroke="#231f20" stroke-miterlimit="10" stroke-width="3"/>
  <line x1="347.237" y1="114.992" x2="372.339" y2="100.5" fill="none" stroke="#231f20" stroke-miterlimit="10" stroke-width="3"/>
  <line x1="370.015" y1="200" x2="399" y2="200" fill="none" stroke="#231f20" stroke-miterlimit="10" stroke-width="3"/>
  <line x1="347.237" y1="285.008" x2="372.339" y2="299.5" fill="none" stroke="#231f20" stroke-miterlimit="10" stroke-width="3"/>
  <line x1="285.008" y1="347.237" x2="299.5" y2="372.339" fill="none" stroke="#231f20" stroke-miterlimit="10" stroke-width="3"/>
  <line x1="200" y1="370.015" x2="200" y2="399" fill="none" stroke="#231f20" stroke-miterlimit="10" stroke-width="3"/>
  <line x1="114.992" y1="347.237" x2="100.5" y2="372.339" fill="none" stroke="#231f20" stroke-miterlimit="10" stroke-width="3"/>
  <line x1="52.763" y1="285.008" x2="27.661" y2="299.5" fill="none" stroke="#231f20" stroke-miterlimit="10" stroke-width="3"/>
  <line x1="29.985" y1="200" x2="1" y2="200" fill="none" stroke="#231f20" stroke-miterlimit="10" stroke-width="3"/>
  <line x1="52.763" y1="114.992" x2="27.661" y2="100.5" fill="none" stroke="#231f20" stroke-miterlimit="10" stroke-width="3"/>
  <line x1="114.992" y1="52.763" x2="100.5" y2="27.661" fill="none" stroke="#231f20" stroke-miterlimit="10" stroke-width="3"/>
  <path d="M200,3c26.596,0,52.395,5.208,76.68,15.48,23.458,9.922,44.527,24.127,62.62,42.22s32.298,39.161,42.22,62.62c10.272,24.285,15.48,50.084,15.48,76.68s-5.208,52.395-15.48,76.68c-9.922,23.458-24.127,44.527-42.22,62.62s-39.161,32.298-62.62,42.22c-24.285,10.272-50.084,15.48-76.68,15.48s-52.395-5.208-76.68-15.48c-23.458-9.922-44.527-24.127-62.62-42.22s-32.298-39.161-42.22-62.62c-10.272-24.285-15.48-50.084-15.48-76.68s5.208-52.395,15.48-76.68c9.922-23.458,24.127-44.527,42.22-62.62s39.161-32.298,62.62-42.22c24.285-10.272,50.084-15.48,76.68-15.48M200,0C89.543,0,0,89.543,0,200s89.543,200,200,200,200-89.543,200-200S310.457,0,200,0h0Z" fill="#231f20"/>
  <path d="M209.337,33.233l-3.919,10.856c-.478,1.323-1.937,2.008-3.26,1.531-1.323-.478-2.008-1.937-1.531-3.26l7.987-22.124-5.531-1.997c-1.178,3.264-4.163,5.354-7.419,5.552l.632-1.75c.625-1.732-.272-3.642-2.004-4.268-1.732-.625-3.643.272-4.268,2.004-.625,1.732.272,3.643,2.004,4.268.831.3,1.677.473,2.516.529l-3.146,8.713h.837l3.139-8.696c2.142-.051,4.195-.853,5.802-2.236.102.455.08.944-.09,1.415l-6.085,16.877c-.909,2.977.669,6.175,3.629,7.244,3.055,1.103,6.425-.48,7.528-3.534l4.016-11.124h-.837ZM194.824,23.8c-.842-.034-1.694-.195-2.528-.496h0c-1.323-.478-2.008-1.937-1.531-3.26.478-1.323,1.937-2.008,3.26-1.53,1.323.478,2.008,1.937,1.531,3.26l-.732,2.027Z" fill="#231f20"/>
  <g>
    <path d="M143.539,108.235l-2.547-6.3h1.107l2.007,5.076,2.007-5.076h1.116l-2.547,6.3h-1.143Z" fill="#adadad"/>
    <path d="M149.857,108.235v-6.3h1.044v6.3h-1.044Z" fill="#adadad"/>
    <path d="M155.5,108.235v-5.346h-1.935v-.954h4.914v.954h-1.935v5.346h-1.044Z" fill="#adadad"/>
    <path d="M159.883,108.235l2.511-6.3h1.107l2.52,6.3h-1.107l-.621-1.548h-2.691l-.612,1.548h-1.107ZM161.953,105.76h1.989l-.99-2.52-.999,2.52Z" fill="#adadad"/>
    <path d="M175.336,108.343c-.606,0-1.145-.14-1.616-.418s-.84-.663-1.107-1.152c-.267-.489-.4-1.052-.4-1.688s.133-1.199.4-1.688c.267-.489.635-.873,1.103-1.152.468-.279,1.005-.419,1.611-.419.408,0,.792.074,1.152.221.36.147.679.35.958.607.279.258.493.558.644.9l-.954.387c-.108-.228-.254-.431-.437-.607-.183-.177-.392-.313-.625-.41-.234-.096-.48-.144-.738-.144-.396,0-.749.099-1.057.297-.309.198-.552.47-.729.815-.177.345-.266.742-.266,1.192s.088.849.266,1.197c.177.348.423.621.738.819.315.198.673.297,1.076.297.264,0,.511-.053.742-.158s.438-.25.621-.437c.183-.186.329-.402.437-.648l.954.387c-.15.354-.363.667-.639.94s-.597.484-.963.634c-.366.15-.756.225-1.17.225Z" fill="#adadad"/>
    <path d="M180.916,108.235v-6.3h1.044v2.592h3.168v-2.592h1.044v6.3h-1.044v-2.754h-3.168v2.754h-1.044Z" fill="#adadad"/>
    <path d="M189.466,108.235v-6.3h2.223c.432,0,.812.084,1.143.252s.588.4.774.697c.186.297.279.641.279,1.031,0,.414-.114.778-.342,1.093-.229.315-.528.548-.9.698l1.494,2.529h-1.179l-1.35-2.331c-.036.006-.074.009-.113.009h-.985v2.322h-1.044ZM190.51,104.95h1.224c.204,0,.385-.045.544-.135.159-.09.288-.213.387-.369.099-.156.149-.333.149-.531,0-.3-.108-.546-.324-.738-.216-.192-.495-.288-.837-.288h-1.143v2.061Z" fill="#adadad"/>
    <path d="M199.798,108.343c-.624,0-1.176-.138-1.656-.414-.48-.276-.856-.66-1.129-1.152-.273-.492-.41-1.053-.41-1.683,0-.642.136-1.208.41-1.696.273-.489.646-.873,1.12-1.152.474-.279,1.023-.419,1.647-.419.618,0,1.166.14,1.642.419.478.279.85.663,1.116,1.152.267.489.4,1.051.4,1.688s-.134,1.2-.4,1.692c-.267.492-.636.876-1.106,1.152-.472.276-1.016.414-1.634.414ZM199.798,107.389c.408,0,.768-.099,1.08-.297.312-.198.557-.469.733-.814.177-.345.266-.739.266-1.184,0-.45-.09-.847-.271-1.192-.18-.345-.427-.617-.742-.814-.315-.198-.68-.297-1.093-.297-.408,0-.771.098-1.089.292-.318.195-.567.466-.747.814-.18.348-.27.744-.27,1.188,0,.45.091.848.274,1.192.183.345.435.617.756.814.321.198.688.297,1.103.297Z" fill="#adadad"/>
    <path d="M205.846,108.235v-6.3h1.08l3.348,4.554v-4.554h1.044v6.3h-1.044l-3.384-4.608v4.608h-1.044Z" fill="#adadad"/>
    <path d="M217.41,108.343c-.624,0-1.176-.138-1.655-.414-.48-.276-.856-.66-1.13-1.152-.273-.492-.409-1.053-.409-1.683,0-.642.136-1.208.409-1.696.273-.489.646-.873,1.12-1.152.475-.279,1.023-.419,1.647-.419.618,0,1.165.14,1.643.419.477.279.849.663,1.116,1.152.267.489.4,1.051.4,1.688s-.134,1.2-.4,1.692c-.268.492-.637.876-1.107,1.152-.471.276-1.016.414-1.634.414ZM217.41,107.389c.408,0,.769-.099,1.08-.297.312-.198.557-.469.733-.814.178-.345.266-.739.266-1.184,0-.45-.09-.847-.27-1.192-.181-.345-.428-.617-.743-.814-.314-.198-.679-.297-1.093-.297-.408,0-.771.098-1.089.292-.318.195-.567.466-.747.814-.181.348-.271.744-.271,1.188,0,.45.092.848.274,1.192.184.345.436.617.756.814.321.198.688.297,1.103.297Z" fill="#adadad"/>
    <path d="M223.458,108.235v-6.3h1.116l1.979,2.916,1.963-2.916h1.125v6.3h-1.044v-4.653l-2.053,3.033-2.043-3.015v4.635h-1.044Z" fill="#adadad"/>
    <path d="M232.936,108.235v-6.3h3.879v.954h-2.835v1.674h2.502v.936h-2.502v1.782h2.861v.954h-3.905Z" fill="#adadad"/>
    <path d="M241.35,108.235v-5.346h-1.935v-.954h4.914v.954h-1.935v5.346h-1.045Z" fill="#adadad"/>
    <path d="M246.993,108.235v-6.3h3.879v.954h-2.835v1.674h2.502v.936h-2.502v1.782h2.862v.954h-3.906Z" fill="#adadad"/>
    <path d="M254.103,108.235v-6.3h2.223c.433,0,.813.084,1.144.252s.588.4.773.697c.187.297.279.641.279,1.031,0,.414-.114.778-.342,1.093-.229.315-.528.548-.9.698l1.494,2.529h-1.179l-1.351-2.331c-.036.006-.073.009-.112.009h-.985v2.322h-1.044ZM255.146,104.95h1.224c.204,0,.386-.045.545-.135s.288-.213.387-.369c.1-.156.148-.333.148-.531,0-.3-.107-.546-.323-.738-.217-.192-.495-.288-.838-.288h-1.143v2.061Z" fill="#adadad"/>
  </g>
  <g>
    <path d="M158.893,388.65l1.251-6.175,1.023.207-.515,2.541,3.105.629.515-2.541,1.023.208-1.251,6.175-1.023-.208.547-2.699-3.105-.629-.547,2.699-1.023-.207Z"/>
    <path d="M169.956,390.804c-.617-.097-1.141-.318-1.572-.665s-.744-.784-.938-1.312-.242-1.104-.145-1.726c.099-.635.321-1.172.667-1.613.345-.44.773-.763,1.285-.965.512-.202,1.076-.256,1.692-.159.611.096,1.13.317,1.559.667.428.35.736.786.924,1.311.188.524.233,1.101.135,1.729-.098.628-.317,1.165-.657,1.609-.34.445-.764.768-1.271.968-.508.199-1.067.252-1.678.156ZM170.103,389.861c.403.062.774.021,1.113-.127s.622-.378.851-.691c.228-.313.376-.689.445-1.128.07-.444.042-.852-.083-1.22-.125-.369-.327-.676-.608-.92-.28-.244-.625-.398-1.034-.462-.403-.063-.777-.022-1.121.12-.345.144-.632.374-.864.689-.232.316-.382.693-.451,1.133-.069.444-.041.851.087,1.22.127.37.334.677.621.922.286.245.634.399,1.043.464Z"/>
    <path d="M175.9,391.553l.679-6.263,1.109.12,1.654,3.112,2.265-2.688,1.119.121-.679,6.263-1.038-.112.501-4.626-2.367,2.795-1.707-3.218-.499,4.608-1.038-.113Z"/>
    <path d="M185.259,392.473l.413-6.286,3.871.254-.062.952-2.829-.186-.11,1.67,2.497.164-.062.934-2.497-.163-.117,1.777,2.856.188-.062.952-3.897-.256Z"/>
    <path d="M212.151,392.666l-.491-6.28,1.113-.087,2.201,2.753,1.729-3.06,1.122-.088.49,6.281-1.041.081-.362-4.639-1.81,3.184-2.271-2.848.36,4.621-1.04.081Z"/>
    <path d="M220.862,391.929l1.72-6.561,1.099-.136,3.273,5.943-1.099.136-.806-1.46-2.671.33-.418,1.611-1.099.136ZM222.613,389.219l1.975-.244-1.292-2.38-.683,2.624Z"/>
    <path d="M229.476,390.797l-1.031-6.215,1.953-.324c.609-.102,1.172-.06,1.686.126.515.186.945.489,1.292.912.347.424.571.939.672,1.55.101.604.055,1.161-.137,1.674-.192.512-.501.94-.928,1.285-.426.344-.944.566-1.554.668l-1.953.324ZM230.346,389.667l.924-.153c.29-.048.553-.147.789-.3.236-.151.434-.341.591-.567.156-.227.267-.479.33-.758.063-.277.07-.567.021-.87-.051-.302-.15-.573-.3-.816-.15-.243-.336-.446-.558-.61s-.47-.279-.742-.347-.554-.077-.844-.028l-.924.153.713,4.297Z"/>
    <path d="M237.363,389.415l-1.273-6.17,3.799-.784.192.935-2.776.573.339,1.64,2.45-.506.189.916-2.45.506.36,1.745,2.803-.578.192.935-3.825.789Z"/>
  </g>
  <g>
    <path d="M170.768,95.347v-13.096h4.896c1.002,0,1.846.176,2.531.527s1.204.842,1.556,1.472.527,1.361.527,2.193-.177,1.556-.532,2.171-.877,1.09-1.569,1.424-1.541.501-2.549.501h-3.498v-1.942h3.19c.592,0,1.075-.083,1.45-.25s.653-.412.835-.734.272-.712.272-1.169c0-.469-.091-.869-.272-1.2s-.461-.584-.839-.76-.866-.264-1.463-.264h-2.188v11.127h-2.347ZM178.133,95.347l-3.182-5.941h2.566l3.243,5.941h-2.628Z" fill="#231f20"/>
    <path d="M185.155,95.549c-.65,0-1.232-.113-1.745-.338s-.914-.558-1.204-.998-.435-.981-.435-1.626c0-.562.122-1.039.365-1.428s.57-.705.98-.945.872-.416,1.384-.527,1.042-.167,1.586-.167h9.114l-.668.501c.053-.551-.004-1.039-.171-1.463s-.425-.759-.773-1.002-.772-.365-1.27-.365c-.504,0-.933.119-1.288.356s-.625.554-.813.949-.281.836-.281,1.323v1.072c0,.633.105,1.16.316,1.582s.505.741.883.958.816.325,1.314.325c.34,0,.646-.048.918-.145s.508-.24.708-.431.352-.426.457-.708l2.136.255c-.135.562-.391,1.055-.769,1.477s-.861.751-1.45.989-1.264.356-2.026.356c-.668,0-1.271-.101-1.811-.303s-.998-.483-1.375-.844-.658-.787-.839-1.279l.176-5.607c.24-.434.541-.81.901-1.129s.778-.564,1.252-.734.999-.255,1.573-.255c.604,0,1.175.097,1.714.29s1.017.492,1.433.896.743.918.98,1.542.356,1.367.356,2.228v.721h-10.564c-.439,0-.828.059-1.165.176s-.599.284-.787.501-.281.478-.281.782c0,.439.157.769.47.989s.71.33,1.191.33c.475,0,.883-.094,1.226-.281s.606-.435.791-.743.277-.643.277-1.006v-3.146c0-.322-.064-.596-.193-.822s-.321-.398-.576-.519-.57-.18-.945-.18c-.381,0-.71.059-.989.176s-.505.27-.681.457-.305.39-.387.606l-2.118-.431c.193-.58.492-1.059.896-1.437s.886-.661,1.446-.848,1.167-.281,1.824-.281c.58,0,1.109.085,1.586.255s.88.442,1.208.817.551.87.668,1.485l-.193,5.643h-.562c-.117.293-.299.56-.545.8s-.539.445-.879.615-.71.302-1.112.396-.813.141-1.235.141Z" fill="#231f20"/>
    <path d="M203.287,85.521v1.793h-5.581v-1.793h5.581ZM199.104,83.183h2.285v9.396c0,.357.076.62.229.787s.401.25.747.25c.105,0,.245-.013.418-.04s.312-.051.417-.075l.36,1.767c-.252.076-.51.13-.773.163s-.516.048-.756.048c-.943,0-1.667-.234-2.171-.703s-.756-1.137-.756-2.004v-9.589Z" fill="#231f20"/>
    <path d="M207.928,95.549c-.621,0-1.181-.113-1.679-.338s-.891-.558-1.178-.998-.431-.981-.431-1.626c0-.557.104-1.017.312-1.38s.489-.653.844-.87.754-.381,1.199-.492.908-.19,1.389-.237c.568-.064,1.031-.12,1.389-.167s.62-.123.787-.229.25-.27.25-.492v-.044c0-.322-.064-.596-.193-.822s-.32-.398-.575-.519-.57-.18-.945-.18c-.381,0-.71.059-.988.176s-.506.27-.682.457-.305.39-.387.606l-2.118-.431c.193-.58.492-1.059.896-1.437s.887-.661,1.446-.848,1.167-.281,1.823-.281c.463,0,.931.054,1.402.163s.903.292,1.296.549.709.604.949,1.037.36.979.36,1.635v6.565h-2.188v-1.354h-.088c-.146.275-.347.532-.602.769s-.571.428-.949.571-.825.215-1.341.215ZM208.517,93.853c.475,0,.884-.094,1.227-.281s.609-.435.8-.743.285-.643.285-1.006v-1.16c-.076.059-.203.114-.382.167s-.378.1-.598.141-.437.076-.65.105-.395.053-.541.07c-.34.047-.647.123-.923.229s-.49.253-.646.444-.233.438-.233.743c0,.281.072.517.216.708s.34.335.589.435.534.149.856.149Z" fill="#231f20"/>
    <path d="M219.239,95.549c-.756,0-1.424-.108-2.004-.325s-1.056-.533-1.428-.949-.614-.92-.726-1.512l2.136-.404c.135.486.374.848.717,1.085s.792.356,1.349.356c.562,0,1.01-.113,1.341-.338s.496-.505.496-.839c0-.281-.108-.514-.325-.699s-.551-.327-1.002-.426l-1.679-.36c-.926-.199-1.617-.527-2.074-.984s-.686-1.046-.686-1.767c0-.609.167-1.137.501-1.582s.799-.791,1.394-1.037,1.284-.369,2.069-.369c.744,0,1.385.105,1.921.316s.97.505,1.301.883.561.822.689,1.332l-2.039.404c-.111-.346-.313-.637-.606-.875s-.706-.356-1.239-.356c-.486,0-.892.107-1.217.321s-.488.488-.488.822c0,.287.108.524.325.712s.574.334,1.072.439l1.67.352c.932.199,1.623.519,2.074.958s.677,1.005.677,1.696c0,.621-.179,1.167-.536,1.639s-.854.841-1.489,1.107-1.367.4-2.193.4Z" fill="#231f20"/>
    <path d="M229.953,85.521v1.793h-5.581v-1.793h5.581ZM225.77,83.183h2.285v9.396c0,.357.076.62.229.787s.401.25.747.25c.105,0,.245-.013.418-.04s.312-.051.417-.075l.36,1.767c-.252.076-.51.13-.773.163s-.516.048-.756.048c-.943,0-1.667-.234-2.171-.703s-.756-1.137-.756-2.004v-9.589Z" fill="#231f20"/>
  </g>
  <line x1="219.008" y1="19.154" x2="217.771" y2="30.916" fill="none" stroke="#adadad" stroke-miterlimit="10"/>
  <line x1="237.807" y1="22.131" x2="235.348" y2="33.7" fill="none" stroke="#adadad" stroke-miterlimit="10"/>
  <line x1="256.192" y1="27.058" x2="252.538" y2="38.306" fill="none" stroke="#adadad" stroke-miterlimit="10"/>
  <line x1="273.962" y1="33.879" x2="269.151" y2="44.683" fill="none" stroke="#adadad" stroke-miterlimit="10"/>
  <line x1="306.884" y1="52.886" x2="299.932" y2="62.455" fill="none" stroke="#adadad" stroke-miterlimit="10"/>
  <line x1="321.676" y1="64.865" x2="313.762" y2="73.654" fill="none" stroke="#adadad" stroke-miterlimit="10"/>
  <line x1="335.135" y1="78.324" x2="326.346" y2="86.238" fill="none" stroke="#adadad" stroke-miterlimit="10"/>
  <line x1="347.114" y1="93.116" x2="337.545" y2="100.068" fill="none" stroke="#adadad" stroke-miterlimit="10"/>
  <line x1="366.121" y1="126.038" x2="355.317" y2="130.849" fill="none" stroke="#adadad" stroke-miterlimit="10"/>
  <line x1="372.942" y1="143.808" x2="361.694" y2="147.462" fill="none" stroke="#adadad" stroke-miterlimit="10"/>
  <line x1="377.869" y1="162.193" x2="366.3" y2="164.652" fill="none" stroke="#adadad" stroke-miterlimit="10"/>
  <line x1="380.846" y1="180.992" x2="369.084" y2="182.229" fill="none" stroke="#adadad" stroke-miterlimit="10"/>
  <line x1="380.846" y1="219.008" x2="369.084" y2="217.771" fill="none" stroke="#adadad" stroke-miterlimit="10"/>
  <line x1="377.869" y1="237.807" x2="366.3" y2="235.348" fill="none" stroke="#adadad" stroke-miterlimit="10"/>
  <line x1="372.942" y1="256.192" x2="361.694" y2="252.538" fill="none" stroke="#adadad" stroke-miterlimit="10"/>
  <line x1="366.121" y1="273.962" x2="355.317" y2="269.151" fill="none" stroke="#adadad" stroke-miterlimit="10"/>
  <line x1="347.114" y1="306.884" x2="337.545" y2="299.932" fill="none" stroke="#adadad" stroke-miterlimit="10"/>
  <line x1="335.135" y1="321.676" x2="326.346" y2="313.762" fill="none" stroke="#adadad" stroke-miterlimit="10"/>
  <line x1="321.676" y1="335.135" x2="313.762" y2="326.346" fill="none" stroke="#adadad" stroke-miterlimit="10"/>
  <line x1="306.884" y1="347.114" x2="299.932" y2="337.545" fill="none" stroke="#adadad" stroke-miterlimit="10"/>
  <line x1="273.962" y1="366.121" x2="269.151" y2="355.317" fill="none" stroke="#adadad" stroke-miterlimit="10"/>
  <line x1="256.192" y1="372.942" x2="252.538" y2="361.694" fill="none" stroke="#adadad" stroke-miterlimit="10"/>
  <line x1="237.807" y1="377.869" x2="235.348" y2="366.3" fill="none" stroke="#adadad" stroke-miterlimit="10"/>
  <line x1="219.008" y1="380.846" x2="217.771" y2="369.084" fill="none" stroke="#adadad" stroke-miterlimit="10"/>
  <line x1="180.992" y1="380.846" x2="182.229" y2="369.084" fill="none" stroke="#adadad" stroke-miterlimit="10"/>
  <line x1="162.193" y1="377.869" x2="164.652" y2="366.3" fill="none" stroke="#adadad" stroke-miterlimit="10"/>
  <line x1="143.808" y1="372.942" x2="147.462" y2="361.694" fill="none" stroke="#adadad" stroke-miterlimit="10"/>
  <line x1="126.038" y1="366.121" x2="130.849" y2="355.317" fill="none" stroke="#adadad" stroke-miterlimit="10"/>
  <line x1="93.116" y1="347.114" x2="100.068" y2="337.545" fill="none" stroke="#adadad" stroke-miterlimit="10"/>
  <line x1="78.324" y1="335.135" x2="86.238" y2="326.346" fill="none" stroke="#adadad" stroke-miterlimit="10"/>
  <line x1="64.865" y1="321.676" x2="73.654" y2="313.762" fill="none" stroke="#adadad" stroke-miterlimit="10"/>
  <line x1="52.886" y1="306.884" x2="62.455" y2="299.932" fill="none" stroke="#adadad" stroke-miterlimit="10"/>
  <line x1="33.879" y1="273.962" x2="44.683" y2="269.151" fill="none" stroke="#adadad" stroke-miterlimit="10"/>
  <line x1="27.058" y1="256.192" x2="38.306" y2="252.538" fill="none" stroke="#adadad" stroke-miterlimit="10"/>
  <line x1="22.131" y1="237.807" x2="33.7" y2="235.348" fill="none" stroke="#adadad" stroke-miterlimit="10"/>
  <line x1="19.154" y1="219.008" x2="30.916" y2="217.771" fill="none" stroke="#adadad" stroke-miterlimit="10"/>
  <line x1="19.154" y1="180.992" x2="30.916" y2="182.229" fill="none" stroke="#adadad" stroke-miterlimit="10"/>
  <line x1="22.131" y1="162.193" x2="33.7" y2="164.652" fill="none" stroke="#adadad" stroke-miterlimit="10"/>
  <line x1="27.058" y1="143.808" x2="38.306" y2="147.462" fill="none" stroke="#adadad" stroke-miterlimit="10"/>
  <line x1="33.879" y1="126.038" x2="44.683" y2="130.849" fill="none" stroke="#adadad" stroke-miterlimit="10"/>
  <line x1="52.886" y1="93.116" x2="62.455" y2="100.068" fill="none" stroke="#adadad" stroke-miterlimit="10"/>
  <line x1="64.865" y1="78.324" x2="73.654" y2="86.238" fill="none" stroke="#adadad" stroke-miterlimit="10"/>
  <line x1="78.324" y1="64.865" x2="86.238" y2="73.654" fill="none" stroke="#adadad" stroke-miterlimit="10"/>
  <line x1="93.116" y1="52.886" x2="100.068" y2="62.455" fill="none" stroke="#adadad" stroke-miterlimit="10"/>
  <line x1="126.038" y1="33.879" x2="130.849" y2="44.683" fill="none" stroke="#adadad" stroke-miterlimit="10"/>
  <line x1="143.808" y1="27.058" x2="147.462" y2="38.306" fill="none" stroke="#adadad" stroke-miterlimit="10"/>
  <line x1="162.193" y1="22.131" x2="164.652" y2="33.7" fill="none" stroke="#adadad" stroke-miterlimit="10"/>
  <line x1="180.992" y1="19.154" x2="182.229" y2="30.916" fill="none" stroke="#adadad" stroke-miterlimit="10"/>
</svg>